<?xml version="1.0" encoding="UTF-8" standalone="no"?><svg height="16" width="24" viewBox="0 0 24 16" fill="none" xmlns="http://www.w3.org/2000/svg">
  <g clip-path="url(#a)">
    <path d="M23 1H1V15H23V1Z" fill="#EE1C25"></path>
    <path d="M23 1H1V10.33H23V1Z" fill="#0B4EA2"></path>
    <path d="M23 1H1V5.67H23V1Z" fill="#fff"></path>
    <path d="M10.62 4.10999H4.57995L4.55995 4.30999C4.55995 4.30999 4.44995 5.37999 4.44995 7.64999C4.44995 8.70999 4.80995 9.64998 5.51995 10.44C6.01995 10.99 6.66995 11.46 7.50995 11.86L7.60995 11.91L7.70995 11.86C8.54995 11.46 9.19995 10.99 9.69995 10.44C10.41 9.64998 10.77 8.70999 10.77 7.64999C10.77 5.37999 10.66 4.34999 10.66 4.30999L10.64 4.10999H10.62Z" fill="#fff"></path>
    <path d="M7.59992 11.67C6.38992 11.09 4.66992 9.93996 4.66992 7.64996C4.66992 5.35996 4.77992 4.32996 4.77992 4.32996H10.4199C10.4199 4.32996 10.5299 5.36996 10.5299 7.64996C10.5299 9.92996 8.79992 11.08 7.59992 11.67Z" fill="#EE1C25"></path>
    <path d="M7.85994 7.04997C8.18994 7.04997 8.81994 7.06997 9.38994 6.87997C9.38994 6.87997 9.37994 7.07997 9.37994 7.31997C9.37994 7.55997 9.38994 7.75997 9.38994 7.75997C8.86994 7.58997 8.22994 7.57997 7.85994 7.58997V8.84997H7.33994V7.58997C6.96994 7.58997 6.32994 7.58997 5.80994 7.75997C5.80994 7.75997 5.81994 7.55997 5.81994 7.31997C5.81994 7.07997 5.80994 6.87997 5.80994 6.87997C6.37994 7.06997 7.00994 7.05997 7.33994 7.04997V6.25997C7.03994 6.25997 6.60994 6.26997 6.12994 6.42997C6.12994 6.42997 6.13994 6.22997 6.13994 5.98997C6.13994 5.74997 6.12994 5.54997 6.12994 5.54997C6.60994 5.70997 7.03994 5.72997 7.33994 5.71997C7.31994 5.21997 7.17994 4.58997 7.17994 4.58997C7.17994 4.58997 7.47994 4.60997 7.59994 4.60997C7.71994 4.60997 8.01994 4.58997 8.01994 4.58997C8.01994 4.58997 7.86994 5.21997 7.85994 5.71997C8.15994 5.71997 8.58994 5.70997 9.06994 5.54997C9.06994 5.54997 9.05994 5.74997 9.05994 5.98997C9.05994 6.22997 9.06994 6.42997 9.06994 6.42997C8.58994 6.26997 8.15994 6.24997 7.85994 6.25997V7.04997Z" fill="#fff"></path>
    <path d="M7.6 8.70996C6.99 8.70996 6.67 9.54996 6.67 9.54996C6.67 9.54996 6.49 9.14996 5.99 9.14996C5.65 9.14996 5.41 9.44996 5.25 9.71996C5.86 10.69 6.83 11.29 7.6 11.66C8.37 11.29 9.34 10.69 9.95 9.71996C9.79 9.43996 9.55 9.14996 9.21 9.14996C8.71 9.14996 8.53 9.54996 8.53 9.54996C8.53 9.54996 8.2 8.70996 7.6 8.70996Z" fill="#0B4EA2"></path>
    <path d="M23 1V15H1V1H23ZM24 0H0V16H24V0Z" fill="#DDD"></path>
  </g>
  <defs>
    <clipPath id="a">
      <path d="M0 0H24V16H0z" fill="#fff"></path>
    </clipPath>
  </defs>
</svg>