<svg id="Warstwa_1" data-name="Warstwa 1" xmlns="http://www.w3.org/2000/svg" viewBox="0 0 588.87 540.24"><defs><style>.cls-1{fill:#010101;}</style></defs><g id="Size_guide" data-name="Size guide"><path class="cls-1" d="M199.88,205.33a12.26,12.26,0,0,0,16.75,4.53,11,11,0,0,0,1.29-.85l31.89-24.53c14,152.12-24.53,215.42-12.26,230.63,5.27,6.14-12.27,4.3,254.68,4.3,33.12,0-17.79-69-2.45-234.93,34,25.51,34.47,27.6,41.71,26.13s4.91,0,57.29-91.77a12.28,12.28,0,0,0-3.31-16L500.94,39.71C479.1,23.4,480.45,27.45,276,27.45c-26.87,0-32.88,9.32-121.83,76.06a12.28,12.28,0,0,0-3.31,15.95ZM430.15,52a61.34,61.34,0,0,1-120.22,0Zm-145,0a85.88,85.88,0,0,0,169.79,0c27.72,0,17.05-3.31,107.59,64.65L525.72,181c-39.75-29.81-41.46-33.61-50.05-29.93a12.25,12.25,0,0,0-7.36,9.81c-12.27,96.31-2.09,162.43,9.93,234.57H261.84c12.26-73.61,22.08-137.77,9.93-234.57a12.26,12.26,0,0,0-19.5-8.34L214.36,181l-36.8-64.41C269.44,47.69,257.91,52,285.15,52Z" transform="translate(-2 -27)"/><path class="cls-1" d="M87.88,52a12.27,12.27,0,0,0,0-24.53H14.27a12.27,12.27,0,1,0,0,24.53H38.8V395.49H14.27a12.27,12.27,0,1,0,0,24.53H87.88a12.27,12.27,0,0,0,0-24.53H63.34V358.68H87.88a12.27,12.27,0,0,0,0-24.53H63.34V297.34H87.88a12.27,12.27,0,0,0,0-24.53H63.34V236H87.88a12.27,12.27,0,0,0,0-24.53H63.34V174.66H87.88a12.27,12.27,0,0,0,0-24.53H63.34V113.32H87.88a12.27,12.27,0,0,0,0-24.53H63.34V52Z" transform="translate(-2 -27)"/><path class="cls-1" d="M566.33,481.36V505.9H541.79V481.36a12.27,12.27,0,1,0-24.53,0V505.9H480.45V481.36a12.27,12.27,0,1,0-24.53,0V505.9H419.11V481.36a12.27,12.27,0,1,0-24.53,0V505.9H357.77V481.36a12.27,12.27,0,1,0-24.53,0V505.9H296.43V481.36a12.27,12.27,0,1,0-24.53,0V505.9H235.09V481.36a12.27,12.27,0,1,0-24.53,0V505.9H173.75V481.36a12.27,12.27,0,1,0-24.53,0V555a12.27,12.27,0,1,0,24.53,0V530.43H566.33V555a12.27,12.27,0,0,0,24.54,0V481.36a12.27,12.27,0,1,0-24.54,0Z" transform="translate(-2 -27)"/></g></svg>